<?xml version="1.0" encoding="UTF-8" standalone="no"?>
<!DOCTYPE svg PUBLIC "-//W3C//DTD SVG 1.1//EN"
 "http://www.w3.org/Graphics/SVG/1.1/DTD/svg11.dtd">
<!-- Generated by graphviz version 2.46.1 (20210213.1702)
 -->
<!-- Title: grafo Pages: 1 -->
<svg width="337pt" height="360pt"
 viewBox="0.00 0.00 337.33 360.00" xmlns="http://www.w3.org/2000/svg" xmlns:xlink="http://www.w3.org/1999/xlink">
<g id="graph0" class="graph" transform="scale(0.67 0.67) rotate(0) translate(4 536)">
<title>grafo</title>
<polygon fill="white" stroke="transparent" points="-4,4 -4,-536 502,-536 502,4 -4,4"/>
<!-- The -->
<g id="node1" class="node">
<title>The</title>
<polygon fill="none" stroke="black" points="207.5,-0.5 207.5,-36.5 261.5,-36.5 261.5,-0.5 207.5,-0.5"/>
<text text-anchor="middle" x="234.5" y="-14.8" font-family="Times New Roman,serif" font-size="14.00">The</text>
</g>
<!-- rig -->
<g id="node2" class="node">
<title>rig</title>
<polygon fill="none" stroke="black" points="24.5,-55.5 24.5,-91.5 119.5,-91.5 119.5,-55.5 24.5,-55.5"/>
<text text-anchor="middle" x="72" y="-69.8" font-family="Times New Roman,serif" font-size="14.00">Lugar: The rig</text>
</g>
<!-- Swamps -->
<g id="node3" class="node">
<title>Swamps</title>
<polygon fill="none" stroke="black" points="182.5,-55.5 182.5,-91.5 286.5,-91.5 286.5,-55.5 182.5,-55.5"/>
<text text-anchor="middle" x="234.5" y="-69.8" font-family="Times New Roman,serif" font-size="14.00">Lugar: Swamps</text>
</g>
<!-- rig&#45;&gt;Swamps -->
<g id="edge1" class="edge">
<title>rig&#45;&gt;Swamps</title>
<path fill="none" stroke="black" d="M119.85,-73.5C136.25,-73.5 154.91,-73.5 172.31,-73.5"/>
<polygon fill="black" stroke="black" points="172.38,-77 182.38,-73.5 172.38,-70 172.38,-77"/>
</g>
<!-- Labs -->
<g id="node4" class="node">
<title>Labs</title>
<polygon fill="none" stroke="black" points="325,-55.5 325,-91.5 408,-91.5 408,-55.5 325,-55.5"/>
<text text-anchor="middle" x="366.5" y="-69.8" font-family="Times New Roman,serif" font-size="14.00">Lugar: Labs</text>
</g>
<!-- Swamps&#45;&gt;Labs -->
<g id="edge2" class="edge">
<title>Swamps&#45;&gt;Labs</title>
<path fill="none" stroke="black" d="M286.51,-73.5C295.71,-73.5 305.3,-73.5 314.5,-73.5"/>
<polygon fill="black" stroke="black" points="314.68,-77 324.68,-73.5 314.68,-70 314.68,-77"/>
</g>
<!-- Hydro -->
<g id="node5" class="node">
<title>Hydro</title>
<polygon fill="none" stroke="black" points="444,-55.5 444,-91.5 498,-91.5 498,-55.5 444,-55.5"/>
<text text-anchor="middle" x="471" y="-69.8" font-family="Times New Roman,serif" font-size="14.00">Hydro</text>
</g>
<!-- Labs&#45;&gt;Hydro -->
<g id="edge3" class="edge">
<title>Labs&#45;&gt;Hydro</title>
<path fill="none" stroke="black" d="M408.01,-73.5C416.51,-73.5 425.42,-73.5 433.75,-73.5"/>
<polygon fill="black" stroke="black" points="433.92,-77 443.92,-73.5 433.92,-70 433.92,-77"/>
</g>
<!-- dam -->
<g id="node6" class="node">
<title>dam</title>
<polygon fill="none" stroke="black" points="12.5,-110.5 12.5,-146.5 131.5,-146.5 131.5,-110.5 12.5,-110.5"/>
<text text-anchor="middle" x="72" y="-124.8" font-family="Times New Roman,serif" font-size="14.00">Lugar: Hydro dam</text>
</g>
<!-- Repulsor -->
<g id="node7" class="node">
<title>Repulsor</title>
<polygon fill="none" stroke="black" points="181,-110.5 181,-146.5 288,-146.5 288,-110.5 181,-110.5"/>
<text text-anchor="middle" x="234.5" y="-124.8" font-family="Times New Roman,serif" font-size="14.00">Lugar: Repulsor</text>
</g>
<!-- dam&#45;&gt;Repulsor -->
<g id="edge4" class="edge">
<title>dam&#45;&gt;Repulsor</title>
<path fill="none" stroke="black" d="M131.85,-128.5C144.49,-128.5 157.89,-128.5 170.67,-128.5"/>
<polygon fill="black" stroke="black" points="170.76,-132 180.76,-128.5 170.76,-125 170.76,-132"/>
</g>
<!-- Water -->
<g id="node8" class="node">
<title>Water</title>
<polygon fill="none" stroke="black" points="339.5,-110.5 339.5,-146.5 393.5,-146.5 393.5,-110.5 339.5,-110.5"/>
<text text-anchor="middle" x="366.5" y="-124.8" font-family="Times New Roman,serif" font-size="14.00">Water</text>
</g>
<!-- Repulsor&#45;&gt;Water -->
<g id="edge5" class="edge">
<title>Repulsor&#45;&gt;Water</title>
<path fill="none" stroke="black" d="M288,-128.5C301.76,-128.5 316.3,-128.5 329.03,-128.5"/>
<polygon fill="black" stroke="black" points="329.23,-132 339.23,-128.5 329.23,-125 329.23,-132"/>
</g>
<!-- treatment -->
<g id="node9" class="node">
<title>treatment</title>
<polygon fill="none" stroke="black" points="0,-165.5 0,-201.5 144,-201.5 144,-165.5 0,-165.5"/>
<text text-anchor="middle" x="72" y="-179.8" font-family="Times New Roman,serif" font-size="14.00">Lugar: Water treatment</text>
</g>
<!-- Portal -->
<g id="node10" class="node">
<title>Portal</title>
<polygon fill="none" stroke="black" points="207.5,-165.5 207.5,-201.5 261.5,-201.5 261.5,-165.5 207.5,-165.5"/>
<text text-anchor="middle" x="234.5" y="-179.8" font-family="Times New Roman,serif" font-size="14.00">Portal</text>
</g>
<!-- treatment&#45;&gt;Portal -->
<g id="edge6" class="edge">
<title>treatment&#45;&gt;Portal</title>
<path fill="none" stroke="black" d="M144.33,-183.5C162.56,-183.5 181.41,-183.5 197.06,-183.5"/>
<polygon fill="black" stroke="black" points="197.34,-187 207.34,-183.5 197.34,-180 197.34,-187"/>
</g>
<!-- de -->
<g id="node11" class="node">
<title>de</title>
<polygon fill="none" stroke="black" points="45,-220.5 45,-256.5 99,-256.5 99,-220.5 45,-220.5"/>
<text text-anchor="middle" x="72" y="-234.8" font-family="Times New Roman,serif" font-size="14.00">de</text>
</g>
<!-- Union -->
<g id="node12" class="node">
<title>Union</title>
<polygon fill="none" stroke="black" points="0.5,-0.5 0.5,-36.5 143.5,-36.5 143.5,-0.5 0.5,-0.5"/>
<text text-anchor="middle" x="72" y="-14.8" font-family="Times New Roman,serif" font-size="14.00">Lugar: Portal de Union</text>
</g>
<!-- Union&#45;&gt;The -->
<g id="edge7" class="edge">
<title>Union&#45;&gt;The</title>
<path fill="none" stroke="black" d="M143.86,-18.5C162.15,-18.5 181.1,-18.5 196.83,-18.5"/>
<polygon fill="black" stroke="black" points="197.17,-22 207.17,-18.5 197.17,-15 197.17,-22"/>
</g>
<!-- dome -->
<g id="node13" class="node">
<title>dome</title>
<polygon fill="none" stroke="black" points="15.5,-275.5 15.5,-311.5 128.5,-311.5 128.5,-275.5 15.5,-275.5"/>
<text text-anchor="middle" x="72" y="-289.8" font-family="Times New Roman,serif" font-size="14.00">Lugar: The dome</text>
</g>
<!-- Lava -->
<g id="node14" class="node">
<title>Lava</title>
<polygon fill="none" stroke="black" points="207.5,-275.5 207.5,-311.5 261.5,-311.5 261.5,-275.5 207.5,-275.5"/>
<text text-anchor="middle" x="234.5" y="-289.8" font-family="Times New Roman,serif" font-size="14.00">Lava</text>
</g>
<!-- dome&#45;&gt;Lava -->
<g id="edge8" class="edge">
<title>dome&#45;&gt;Lava</title>
<path fill="none" stroke="black" d="M128.68,-293.5C151.35,-293.5 176.91,-293.5 197.12,-293.5"/>
<polygon fill="black" stroke="black" points="197.15,-297 207.15,-293.5 197.15,-290 197.15,-297"/>
</g>
<!-- city -->
<g id="node15" class="node">
<title>city</title>
<polygon fill="none" stroke="black" points="18.5,-330.5 18.5,-366.5 125.5,-366.5 125.5,-330.5 18.5,-330.5"/>
<text text-anchor="middle" x="72" y="-344.8" font-family="Times New Roman,serif" font-size="14.00">Lugar: Lava city</text>
</g>
<!-- Sorting -->
<g id="node16" class="node">
<title>Sorting</title>
<polygon fill="none" stroke="black" points="206,-330.5 206,-366.5 263,-366.5 263,-330.5 206,-330.5"/>
<text text-anchor="middle" x="234.5" y="-344.8" font-family="Times New Roman,serif" font-size="14.00">Sorting</text>
</g>
<!-- city&#45;&gt;Sorting -->
<g id="edge9" class="edge">
<title>city&#45;&gt;Sorting</title>
<path fill="none" stroke="black" d="M125.55,-348.5C148.39,-348.5 174.64,-348.5 195.53,-348.5"/>
<polygon fill="black" stroke="black" points="195.62,-352 205.62,-348.5 195.62,-345 195.62,-352"/>
</g>
<!-- factory -->
<g id="node17" class="node">
<title>factory</title>
<polygon fill="none" stroke="black" points="2,-385.5 2,-421.5 142,-421.5 142,-385.5 2,-385.5"/>
<text text-anchor="middle" x="72" y="-399.8" font-family="Times New Roman,serif" font-size="14.00">Lugar: Sorting factory</text>
</g>
<!-- Harvester -->
<g id="node18" class="node">
<title>Harvester</title>
<polygon fill="none" stroke="black" points="180,-385.5 180,-421.5 289,-421.5 289,-385.5 180,-385.5"/>
<text text-anchor="middle" x="234.5" y="-399.8" font-family="Times New Roman,serif" font-size="14.00">Lugar: Harvester</text>
</g>
<!-- factory&#45;&gt;Harvester -->
<g id="edge10" class="edge">
<title>factory&#45;&gt;Harvester</title>
<path fill="none" stroke="black" d="M142.46,-403.5C151.57,-403.5 160.87,-403.5 169.88,-403.5"/>
<polygon fill="black" stroke="black" points="169.9,-407 179.9,-403.5 169.9,-400 169.9,-407"/>
</g>
<!-- Thermal -->
<g id="node19" class="node">
<title>Thermal</title>
<polygon fill="none" stroke="black" points="335.5,-385.5 335.5,-421.5 397.5,-421.5 397.5,-385.5 335.5,-385.5"/>
<text text-anchor="middle" x="366.5" y="-399.8" font-family="Times New Roman,serif" font-size="14.00">Thermal</text>
</g>
<!-- Harvester&#45;&gt;Thermal -->
<g id="edge11" class="edge">
<title>Harvester&#45;&gt;Thermal</title>
<path fill="none" stroke="black" d="M289.13,-403.5C301.23,-403.5 313.87,-403.5 325.31,-403.5"/>
<polygon fill="black" stroke="black" points="325.43,-407 335.43,-403.5 325.43,-400 325.43,-407"/>
</g>
<!-- station -->
<g id="node20" class="node">
<title>station</title>
<polygon fill="none" stroke="black" points="1,-440.5 1,-476.5 143,-476.5 143,-440.5 1,-440.5"/>
<text text-anchor="middle" x="72" y="-454.8" font-family="Times New Roman,serif" font-size="14.00">Lugar: Thermal station</text>
</g>
<!-- Mirage -->
<g id="node21" class="node">
<title>Mirage</title>
<polygon fill="none" stroke="black" points="207,-440.5 207,-476.5 262,-476.5 262,-440.5 207,-440.5"/>
<text text-anchor="middle" x="234.5" y="-454.8" font-family="Times New Roman,serif" font-size="14.00">Mirage</text>
</g>
<!-- station&#45;&gt;Mirage -->
<g id="edge12" class="edge">
<title>station&#45;&gt;Mirage</title>
<path fill="none" stroke="black" d="M143.4,-458.5C161.74,-458.5 180.78,-458.5 196.6,-458.5"/>
<polygon fill="black" stroke="black" points="196.99,-462 206.99,-458.5 196.99,-455 196.99,-462"/>
</g>
<!-- voyage2 -->
<g id="node22" class="node">
<title>voyage2</title>
<polygon fill="none" stroke="black" points="0,-495.5 0,-531.5 144,-531.5 144,-495.5 0,-495.5"/>
<text text-anchor="middle" x="72" y="-509.8" font-family="Times New Roman,serif" font-size="14.00">Lugar: Mirage voyage2</text>
</g>
</g>
</svg>
