<?xml version="1.0" encoding="UTF-8" standalone="no"?>
<!DOCTYPE svg PUBLIC "-//W3C//DTD SVG 1.1//EN"
 "http://www.w3.org/Graphics/SVG/1.1/DTD/svg11.dtd">
<!-- Generated by graphviz version 2.46.1 (20210213.1702)
 -->
<!-- Title: grafo Pages: 1 -->
<svg width="433pt" height="45pt"
 viewBox="0.00 0.00 433.00 45.00" xmlns="http://www.w3.org/2000/svg" xmlns:xlink="http://www.w3.org/1999/xlink">
<g id="graph0" class="graph" transform="scale(1 1) rotate(0) translate(4 41)">
<title>grafo</title>
<polygon fill="white" stroke="transparent" points="-4,4 -4,-41 429,-41 429,4 -4,4"/>
<!-- Reparaciones -->
<g id="node1" class="node">
<title>Reparaciones</title>
<polygon fill="none" stroke="black" points="0,-0.5 0,-36.5 131,-36.5 131,-0.5 0,-0.5"/>
<text text-anchor="middle" x="65.5" y="-14.8" font-family="Times New Roman,serif" font-size="14.00">Lugar: Reparaciones</text>
</g>
<!-- Despacho -->
<g id="node2" class="node">
<title>Despacho</title>
<polygon fill="none" stroke="black" points="167,-0.5 167,-36.5 279,-36.5 279,-0.5 167,-0.5"/>
<text text-anchor="middle" x="223" y="-14.8" font-family="Times New Roman,serif" font-size="14.00">Lugar: Despacho</text>
</g>
<!-- Reparaciones&#45;&gt;Despacho -->
<g id="edge1" class="edge">
<title>Reparaciones&#45;&gt;Despacho</title>
<path fill="none" stroke="black" d="M131.1,-18.5C139.52,-18.5 148.16,-18.5 156.59,-18.5"/>
<polygon fill="black" stroke="black" points="156.76,-22 166.76,-18.5 156.76,-15 156.76,-22"/>
</g>
<!-- Aranceles -->
<g id="node3" class="node">
<title>Aranceles</title>
<polygon fill="none" stroke="black" points="315,-0.5 315,-36.5 425,-36.5 425,-0.5 315,-0.5"/>
<text text-anchor="middle" x="370" y="-14.8" font-family="Times New Roman,serif" font-size="14.00">Lugar: Aranceles</text>
</g>
<!-- Despacho&#45;&gt;Aranceles -->
<g id="edge2" class="edge">
<title>Despacho&#45;&gt;Aranceles</title>
<path fill="none" stroke="black" d="M279.23,-18.5C287.54,-18.5 296.17,-18.5 304.65,-18.5"/>
<polygon fill="black" stroke="black" points="304.88,-22 314.88,-18.5 304.88,-15 304.88,-22"/>
</g>
</g>
</svg>
