<?xml version="1.0" encoding="UTF-8" standalone="no"?>
<!DOCTYPE svg PUBLIC "-//W3C//DTD SVG 1.1//EN"
 "http://www.w3.org/Graphics/SVG/1.1/DTD/svg11.dtd">
<!-- Generated by graphviz version 2.46.1 (20210213.1702)
 -->
<!-- Title: grafo Pages: 1 -->
<svg width="322pt" height="360pt"
 viewBox="0.00 0.00 322.33 360.00" xmlns="http://www.w3.org/2000/svg" xmlns:xlink="http://www.w3.org/1999/xlink">
<g id="graph0" class="graph" transform="scale(0.84 0.84) rotate(0) translate(4 426)">
<title>grafo</title>
<polygon fill="white" stroke="transparent" points="-4,4 -4,-426 381,-426 381,4 -4,4"/>
<!-- The -->
<g id="node1" class="node">
<title>The</title>
<polygon fill="none" stroke="black" points="323,-27.5 323,-63.5 377,-63.5 377,-27.5 323,-27.5"/>
<text text-anchor="middle" x="350" y="-41.8" font-family="Times New Roman,serif" font-size="14.00">The</text>
</g>
<!-- geyser -->
<g id="node2" class="node">
<title>geyser</title>
<polygon fill="none" stroke="black" points="13.5,-110.5 13.5,-146.5 130.5,-146.5 130.5,-110.5 13.5,-110.5"/>
<text text-anchor="middle" x="72" y="-124.8" font-family="Times New Roman,serif" font-size="14.00">Lugar: The geyser</text>
</g>
<!-- Lava -->
<g id="node3" class="node">
<title>Lava</title>
<polygon fill="none" stroke="black" points="206.5,-110.5 206.5,-146.5 260.5,-146.5 260.5,-110.5 206.5,-110.5"/>
<text text-anchor="middle" x="233.5" y="-124.8" font-family="Times New Roman,serif" font-size="14.00">Lava</text>
</g>
<!-- geyser&#45;&gt;Lava -->
<g id="edge1" class="edge">
<title>geyser&#45;&gt;Lava</title>
<path fill="none" stroke="black" d="M130.58,-128.5C152.42,-128.5 176.66,-128.5 196.02,-128.5"/>
<polygon fill="black" stroke="black" points="196.23,-132 206.23,-128.5 196.23,-125 196.23,-132"/>
</g>
<!-- city -->
<g id="node4" class="node">
<title>city</title>
<polygon fill="none" stroke="black" points="180,-55.5 180,-91.5 287,-91.5 287,-55.5 180,-55.5"/>
<text text-anchor="middle" x="233.5" y="-69.8" font-family="Times New Roman,serif" font-size="14.00">Lugar: Lava city</text>
</g>
<!-- city&#45;&gt;The -->
<g id="edge2" class="edge">
<title>city&#45;&gt;The</title>
<path fill="none" stroke="black" d="M287.06,-60.65C295.92,-58.48 304.93,-56.28 313.24,-54.25"/>
<polygon fill="black" stroke="black" points="314.08,-57.64 322.96,-51.87 312.41,-50.84 314.08,-57.64"/>
</g>
<!-- dome -->
<g id="node5" class="node">
<title>dome</title>
<polygon fill="none" stroke="black" points="15.5,-165.5 15.5,-201.5 128.5,-201.5 128.5,-165.5 15.5,-165.5"/>
<text text-anchor="middle" x="72" y="-179.8" font-family="Times New Roman,serif" font-size="14.00">Lugar: The dome</text>
</g>
<!-- Portal -->
<g id="node6" class="node">
<title>Portal</title>
<polygon fill="none" stroke="black" points="206.5,-165.5 206.5,-201.5 260.5,-201.5 260.5,-165.5 206.5,-165.5"/>
<text text-anchor="middle" x="233.5" y="-179.8" font-family="Times New Roman,serif" font-size="14.00">Portal</text>
</g>
<!-- dome&#45;&gt;Portal -->
<g id="edge3" class="edge">
<title>dome&#45;&gt;Portal</title>
<path fill="none" stroke="black" d="M128.79,-183.5C151.17,-183.5 176.34,-183.5 196.27,-183.5"/>
<polygon fill="black" stroke="black" points="196.47,-187 206.47,-183.5 196.47,-180 196.47,-187"/>
</g>
<!-- de -->
<g id="node7" class="node">
<title>de</title>
<polygon fill="none" stroke="black" points="45,-220.5 45,-256.5 99,-256.5 99,-220.5 45,-220.5"/>
<text text-anchor="middle" x="72" y="-234.8" font-family="Times New Roman,serif" font-size="14.00">de</text>
</g>
<!-- Union -->
<g id="node8" class="node">
<title>Union</title>
<polygon fill="none" stroke="black" points="0.5,-275.5 0.5,-311.5 143.5,-311.5 143.5,-275.5 0.5,-275.5"/>
<text text-anchor="middle" x="72" y="-289.8" font-family="Times New Roman,serif" font-size="14.00">Lugar: Portal de Union</text>
</g>
<!-- Water -->
<g id="node9" class="node">
<title>Water</title>
<polygon fill="none" stroke="black" points="206.5,-275.5 206.5,-311.5 260.5,-311.5 260.5,-275.5 206.5,-275.5"/>
<text text-anchor="middle" x="233.5" y="-289.8" font-family="Times New Roman,serif" font-size="14.00">Water</text>
</g>
<!-- Union&#45;&gt;Water -->
<g id="edge4" class="edge">
<title>Union&#45;&gt;Water</title>
<path fill="none" stroke="black" d="M143.89,-293.5C162,-293.5 180.74,-293.5 196.29,-293.5"/>
<polygon fill="black" stroke="black" points="196.5,-297 206.5,-293.5 196.5,-290 196.5,-297"/>
</g>
<!-- treatment -->
<g id="node10" class="node">
<title>treatment</title>
<polygon fill="none" stroke="black" points="0,-330.5 0,-366.5 144,-366.5 144,-330.5 0,-330.5"/>
<text text-anchor="middle" x="72" y="-344.8" font-family="Times New Roman,serif" font-size="14.00">Lugar: Water treatment</text>
</g>
<!-- Repulsor -->
<g id="node11" class="node">
<title>Repulsor</title>
<polygon fill="none" stroke="black" points="180,-330.5 180,-366.5 287,-366.5 287,-330.5 180,-330.5"/>
<text text-anchor="middle" x="233.5" y="-344.8" font-family="Times New Roman,serif" font-size="14.00">Lugar: Repulsor</text>
</g>
<!-- treatment&#45;&gt;Repulsor -->
<g id="edge5" class="edge">
<title>treatment&#45;&gt;Repulsor</title>
<path fill="none" stroke="black" d="M144.35,-348.5C152.84,-348.5 161.46,-348.5 169.82,-348.5"/>
<polygon fill="black" stroke="black" points="169.86,-352 179.86,-348.5 169.86,-345 169.86,-352"/>
</g>
<!-- Hydro -->
<g id="node12" class="node">
<title>Hydro</title>
<polygon fill="none" stroke="black" points="323,-330.5 323,-366.5 377,-366.5 377,-330.5 323,-330.5"/>
<text text-anchor="middle" x="350" y="-344.8" font-family="Times New Roman,serif" font-size="14.00">Hydro</text>
</g>
<!-- Repulsor&#45;&gt;Hydro -->
<g id="edge6" class="edge">
<title>Repulsor&#45;&gt;Hydro</title>
<path fill="none" stroke="black" d="M287.06,-348.5C295.72,-348.5 304.53,-348.5 312.69,-348.5"/>
<polygon fill="black" stroke="black" points="312.96,-352 322.96,-348.5 312.96,-345 312.96,-352"/>
</g>
<!-- dam -->
<g id="node13" class="node">
<title>dam</title>
<polygon fill="none" stroke="black" points="12.5,-0.5 12.5,-36.5 131.5,-36.5 131.5,-0.5 12.5,-0.5"/>
<text text-anchor="middle" x="72" y="-14.8" font-family="Times New Roman,serif" font-size="14.00">Lugar: Hydro dam</text>
</g>
<!-- Swamps -->
<g id="node14" class="node">
<title>Swamps</title>
<polygon fill="none" stroke="black" points="181.5,-0.5 181.5,-36.5 285.5,-36.5 285.5,-0.5 181.5,-0.5"/>
<text text-anchor="middle" x="233.5" y="-14.8" font-family="Times New Roman,serif" font-size="14.00">Lugar: Swamps</text>
</g>
<!-- dam&#45;&gt;Swamps -->
<g id="edge7" class="edge">
<title>dam&#45;&gt;Swamps</title>
<path fill="none" stroke="black" d="M131.94,-18.5C144.75,-18.5 158.34,-18.5 171.24,-18.5"/>
<polygon fill="black" stroke="black" points="171.41,-22 181.41,-18.5 171.41,-15 171.41,-22"/>
</g>
<!-- Swamps&#45;&gt;The -->
<g id="edge8" class="edge">
<title>Swamps&#45;&gt;The</title>
<path fill="none" stroke="black" d="M285.72,-30.58C294.97,-32.76 304.42,-34.99 313.11,-37.04"/>
<polygon fill="black" stroke="black" points="312.37,-40.46 322.9,-39.35 313.97,-33.64 312.37,-40.46"/>
</g>
<!-- rig -->
<g id="node15" class="node">
<title>rig</title>
<polygon fill="none" stroke="black" points="24.5,-385.5 24.5,-421.5 119.5,-421.5 119.5,-385.5 24.5,-385.5"/>
<text text-anchor="middle" x="72" y="-399.8" font-family="Times New Roman,serif" font-size="14.00">Lugar: The rig</text>
</g>
</g>
</svg>
