<?xml version="1.0" encoding="UTF-8" standalone="no"?>
<!DOCTYPE svg PUBLIC "-//W3C//DTD SVG 1.1//EN"
 "http://www.w3.org/Graphics/SVG/1.1/DTD/svg11.dtd">
<!-- Generated by graphviz version 2.46.1 (20210213.1702)
 -->
<!-- Title: grafo Pages: 1 -->
<svg width="422pt" height="45pt"
 viewBox="0.00 0.00 422.00 45.00" xmlns="http://www.w3.org/2000/svg" xmlns:xlink="http://www.w3.org/1999/xlink">
<g id="graph0" class="graph" transform="scale(1 1) rotate(0) translate(4 41)">
<title>grafo</title>
<polygon fill="white" stroke="transparent" points="-4,4 -4,-41 418,-41 418,4 -4,4"/>
<!-- Despacho -->
<g id="node1" class="node">
<title>Despacho</title>
<polygon fill="none" stroke="black" points="0,-0.5 0,-36.5 112,-36.5 112,-0.5 0,-0.5"/>
<text text-anchor="middle" x="56" y="-14.8" font-family="Times New Roman,serif" font-size="14.00">Lugar: Despacho</text>
</g>
<!-- Reparaciones -->
<g id="node2" class="node">
<title>Reparaciones</title>
<polygon fill="none" stroke="black" points="148,-0.5 148,-36.5 279,-36.5 279,-0.5 148,-0.5"/>
<text text-anchor="middle" x="213.5" y="-14.8" font-family="Times New Roman,serif" font-size="14.00">Lugar: Reparaciones</text>
</g>
<!-- Despacho&#45;&gt;Reparaciones -->
<g id="edge1" class="edge">
<title>Despacho&#45;&gt;Reparaciones</title>
<path fill="none" stroke="black" d="M112.26,-18.5C120.54,-18.5 129.2,-18.5 137.8,-18.5"/>
<polygon fill="black" stroke="black" points="137.86,-22 147.86,-18.5 137.86,-15 137.86,-22"/>
</g>
<!-- Textiles -->
<g id="node3" class="node">
<title>Textiles</title>
<polygon fill="none" stroke="black" points="315,-0.5 315,-36.5 414,-36.5 414,-0.5 315,-0.5"/>
<text text-anchor="middle" x="364.5" y="-14.8" font-family="Times New Roman,serif" font-size="14.00">Lugar: Textiles</text>
</g>
<!-- Reparaciones&#45;&gt;Textiles -->
<g id="edge2" class="edge">
<title>Reparaciones&#45;&gt;Textiles</title>
<path fill="none" stroke="black" d="M279.42,-18.5C287.89,-18.5 296.54,-18.5 304.9,-18.5"/>
<polygon fill="black" stroke="black" points="304.93,-22 314.93,-18.5 304.93,-15 304.93,-22"/>
</g>
</g>
</svg>
