<?xml version="1.0" encoding="UTF-8" standalone="no"?>
<!DOCTYPE svg PUBLIC "-//W3C//DTD SVG 1.1//EN"
 "http://www.w3.org/Graphics/SVG/1.1/DTD/svg11.dtd">
<!-- Generated by graphviz version 2.46.1 (20210213.1702)
 -->
<!-- Title: grafo Pages: 1 -->
<svg width="576pt" height="294pt"
 viewBox="0.00 0.00 576.00 293.81" xmlns="http://www.w3.org/2000/svg" xmlns:xlink="http://www.w3.org/1999/xlink">
<g id="graph0" class="graph" transform="scale(0.68 0.68) rotate(0) translate(4 426)">
<title>grafo</title>
<polygon fill="white" stroke="transparent" points="-4,4 -4,-426 839,-426 839,4 -4,4"/>
<!-- Muelles -->
<g id="node1" class="node">
<title>Muelles</title>
<polygon fill="none" stroke="black" points="35.5,-0.5 35.5,-36.5 133.5,-36.5 133.5,-0.5 35.5,-0.5"/>
<text text-anchor="middle" x="84.5" y="-14.8" font-family="Times New Roman,serif" font-size="14.00">Lugar: Muelles</text>
</g>
<!-- Transportador -->
<g id="node2" class="node">
<title>Transportador</title>
<polygon fill="none" stroke="black" points="205,-0.5 205,-36.5 342,-36.5 342,-0.5 205,-0.5"/>
<text text-anchor="middle" x="273.5" y="-14.8" font-family="Times New Roman,serif" font-size="14.00">Lugar: Transportador</text>
</g>
<!-- Muelles&#45;&gt;Transportador -->
<g id="edge1" class="edge">
<title>Muelles&#45;&gt;Transportador</title>
<path fill="none" stroke="black" d="M133.66,-18.5C152.26,-18.5 174.02,-18.5 194.72,-18.5"/>
<polygon fill="black" stroke="black" points="194.77,-22 204.77,-18.5 194.77,-15 194.77,-22"/>
</g>
<!-- Oasis -->
<g id="node3" class="node">
<title>Oasis</title>
<polygon fill="none" stroke="black" points="378,-0.5 378,-36.5 465,-36.5 465,-0.5 378,-0.5"/>
<text text-anchor="middle" x="421.5" y="-14.8" font-family="Times New Roman,serif" font-size="14.00">Lugar: Oasis</text>
</g>
<!-- Transportador&#45;&gt;Oasis -->
<g id="edge2" class="edge">
<title>Transportador&#45;&gt;Oasis</title>
<path fill="none" stroke="black" d="M342.37,-18.5C350.85,-18.5 359.43,-18.5 367.63,-18.5"/>
<polygon fill="black" stroke="black" points="367.8,-22 377.8,-18.5 367.8,-15 367.8,-22"/>
</g>
<!-- Eliseo -->
<g id="node4" class="node">
<title>Eliseo</title>
<polygon fill="none" stroke="black" points="501,-0.5 501,-36.5 590,-36.5 590,-0.5 501,-0.5"/>
<text text-anchor="middle" x="545.5" y="-14.8" font-family="Times New Roman,serif" font-size="14.00">Lugar: Eliseo</text>
</g>
<!-- Oasis&#45;&gt;Eliseo -->
<g id="edge3" class="edge">
<title>Oasis&#45;&gt;Eliseo</title>
<path fill="none" stroke="black" d="M465.17,-18.5C473.38,-18.5 482.07,-18.5 490.58,-18.5"/>
<polygon fill="black" stroke="black" points="490.82,-22 500.82,-18.5 490.82,-15 490.82,-22"/>
</g>
<!-- Hidroponia -->
<g id="node5" class="node">
<title>Hidroponia</title>
<polygon fill="none" stroke="black" points="626,-0.5 626,-36.5 745,-36.5 745,-0.5 626,-0.5"/>
<text text-anchor="middle" x="685.5" y="-14.8" font-family="Times New Roman,serif" font-size="14.00">Lugar: Hidroponia</text>
</g>
<!-- Eliseo&#45;&gt;Hidroponia -->
<g id="edge4" class="edge">
<title>Eliseo&#45;&gt;Hidroponia</title>
<path fill="none" stroke="black" d="M590.16,-18.5C598.34,-18.5 607.06,-18.5 615.78,-18.5"/>
<polygon fill="black" stroke="black" points="615.98,-22 625.98,-18.5 615.98,-15 615.98,-22"/>
</g>
<!-- Plaza -->
<g id="node6" class="node">
<title>Plaza</title>
<polygon fill="none" stroke="black" points="781,-0.5 781,-36.5 835,-36.5 835,-0.5 781,-0.5"/>
<text text-anchor="middle" x="808" y="-14.8" font-family="Times New Roman,serif" font-size="14.00">Plaza</text>
</g>
<!-- Hidroponia&#45;&gt;Plaza -->
<g id="edge5" class="edge">
<title>Hidroponia&#45;&gt;Plaza</title>
<path fill="none" stroke="black" d="M745.34,-18.5C753.98,-18.5 762.66,-18.5 770.66,-18.5"/>
<polygon fill="black" stroke="black" points="770.74,-22 780.74,-18.5 770.74,-15 770.74,-22"/>
</g>
<!-- de -->
<g id="node7" class="node">
<title>de</title>
<polygon fill="none" stroke="black" points="57.5,-55.5 57.5,-91.5 111.5,-91.5 111.5,-55.5 57.5,-55.5"/>
<text text-anchor="middle" x="84.5" y="-69.8" font-family="Times New Roman,serif" font-size="14.00">de</text>
</g>
<!-- los -->
<g id="node8" class="node">
<title>los</title>
<polygon fill="none" stroke="black" points="57.5,-110.5 57.5,-146.5 111.5,-146.5 111.5,-110.5 57.5,-110.5"/>
<text text-anchor="middle" x="84.5" y="-124.8" font-family="Times New Roman,serif" font-size="14.00">los</text>
</g>
<!-- bonsais -->
<g id="node9" class="node">
<title>bonsais</title>
<polygon fill="none" stroke="black" points="0,-165.5 0,-201.5 169,-201.5 169,-165.5 0,-165.5"/>
<text text-anchor="middle" x="84.5" y="-179.8" font-family="Times New Roman,serif" font-size="14.00">Lugar: Plaza de los bonsais</text>
</g>
<!-- Portal -->
<g id="node10" class="node">
<title>Portal</title>
<polygon fill="none" stroke="black" points="246.5,-165.5 246.5,-201.5 300.5,-201.5 300.5,-165.5 246.5,-165.5"/>
<text text-anchor="middle" x="273.5" y="-179.8" font-family="Times New Roman,serif" font-size="14.00">Portal</text>
</g>
<!-- bonsais&#45;&gt;Portal -->
<g id="edge6" class="edge">
<title>bonsais&#45;&gt;Portal</title>
<path fill="none" stroke="black" d="M169.15,-183.5C192.62,-183.5 216.92,-183.5 236.06,-183.5"/>
<polygon fill="black" stroke="black" points="236.13,-187 246.13,-183.5 236.13,-180 236.13,-187"/>
</g>
<!-- Union -->
<g id="node11" class="node">
<title>Union</title>
<polygon fill="none" stroke="black" points="13,-275.5 13,-311.5 156,-311.5 156,-275.5 13,-275.5"/>
<text text-anchor="middle" x="84.5" y="-289.8" font-family="Times New Roman,serif" font-size="14.00">Lugar: Portal de Union</text>
</g>
<!-- The -->
<g id="node12" class="node">
<title>The</title>
<polygon fill="none" stroke="black" points="246.5,-247.5 246.5,-283.5 300.5,-283.5 300.5,-247.5 246.5,-247.5"/>
<text text-anchor="middle" x="273.5" y="-261.8" font-family="Times New Roman,serif" font-size="14.00">The</text>
</g>
<!-- Union&#45;&gt;The -->
<g id="edge7" class="edge">
<title>Union&#45;&gt;The</title>
<path fill="none" stroke="black" d="M156.2,-282.91C183.34,-278.85 213.21,-274.38 235.89,-270.98"/>
<polygon fill="black" stroke="black" points="236.71,-274.4 246.08,-269.46 235.67,-267.48 236.71,-274.4"/>
</g>
<!-- dome -->
<g id="node13" class="node">
<title>dome</title>
<polygon fill="none" stroke="black" points="28,-330.5 28,-366.5 141,-366.5 141,-330.5 28,-330.5"/>
<text text-anchor="middle" x="84.5" y="-344.8" font-family="Times New Roman,serif" font-size="14.00">Lugar: The dome</text>
</g>
<!-- Lava -->
<g id="node14" class="node">
<title>Lava</title>
<polygon fill="none" stroke="black" points="246.5,-330.5 246.5,-366.5 300.5,-366.5 300.5,-330.5 246.5,-330.5"/>
<text text-anchor="middle" x="273.5" y="-344.8" font-family="Times New Roman,serif" font-size="14.00">Lava</text>
</g>
<!-- dome&#45;&gt;Lava -->
<g id="edge8" class="edge">
<title>dome&#45;&gt;Lava</title>
<path fill="none" stroke="black" d="M141.1,-348.5C171.89,-348.5 209.29,-348.5 236.3,-348.5"/>
<polygon fill="black" stroke="black" points="236.47,-352 246.47,-348.5 236.47,-345 236.47,-352"/>
</g>
<!-- city -->
<g id="node15" class="node">
<title>city</title>
<polygon fill="none" stroke="black" points="31,-220.5 31,-256.5 138,-256.5 138,-220.5 31,-220.5"/>
<text text-anchor="middle" x="84.5" y="-234.8" font-family="Times New Roman,serif" font-size="14.00">Lugar: Lava city</text>
</g>
<!-- city&#45;&gt;The -->
<g id="edge9" class="edge">
<title>city&#45;&gt;The</title>
<path fill="none" stroke="black" d="M138.09,-246.09C169.41,-250.62 208.36,-256.24 236.26,-260.27"/>
<polygon fill="black" stroke="black" points="235.97,-263.76 246.37,-261.73 236.97,-256.83 235.97,-263.76"/>
</g>
<!-- geyser -->
<g id="node16" class="node">
<title>geyser</title>
<polygon fill="none" stroke="black" points="26,-385.5 26,-421.5 143,-421.5 143,-385.5 26,-385.5"/>
<text text-anchor="middle" x="84.5" y="-399.8" font-family="Times New Roman,serif" font-size="14.00">Lugar: The geyser</text>
</g>
</g>
</svg>
