<?xml version="1.0" encoding="UTF-8" standalone="no"?>
<!DOCTYPE svg PUBLIC "-//W3C//DTD SVG 1.1//EN"
 "http://www.w3.org/Graphics/SVG/1.1/DTD/svg11.dtd">
<!-- Generated by graphviz version 2.46.1 (20210213.1702)
 -->
<!-- Title: grafo Pages: 1 -->
<svg width="576pt" height="328pt"
 viewBox="0.00 0.00 576.00 327.62" xmlns="http://www.w3.org/2000/svg" xmlns:xlink="http://www.w3.org/1999/xlink">
<g id="graph0" class="graph" transform="scale(0.76 0.76) rotate(0) translate(4 426)">
<title>grafo</title>
<polygon fill="white" stroke="transparent" points="-4,4 -4,-426 752,-426 752,4 -4,4"/>
<!-- Mirage -->
<g id="node1" class="node">
<title>Mirage</title>
<polygon fill="none" stroke="black" points="57,-0.5 57,-36.5 112,-36.5 112,-0.5 57,-0.5"/>
<text text-anchor="middle" x="84.5" y="-14.8" font-family="Times New Roman,serif" font-size="14.00">Mirage</text>
</g>
<!-- voyage2 -->
<g id="node2" class="node">
<title>voyage2</title>
<polygon fill="none" stroke="black" points="12.5,-55.5 12.5,-91.5 156.5,-91.5 156.5,-55.5 12.5,-55.5"/>
<text text-anchor="middle" x="84.5" y="-69.8" font-family="Times New Roman,serif" font-size="14.00">Lugar: Mirage voyage2</text>
</g>
<!-- Harvester -->
<g id="node3" class="node">
<title>Harvester</title>
<polygon fill="none" stroke="black" points="210,-55.5 210,-91.5 319,-91.5 319,-55.5 210,-55.5"/>
<text text-anchor="middle" x="264.5" y="-69.8" font-family="Times New Roman,serif" font-size="14.00">Lugar: Harvester</text>
</g>
<!-- voyage2&#45;&gt;Harvester -->
<g id="edge1" class="edge">
<title>voyage2&#45;&gt;Harvester</title>
<path fill="none" stroke="black" d="M156.62,-73.5C170.88,-73.5 185.78,-73.5 199.77,-73.5"/>
<polygon fill="black" stroke="black" points="199.77,-77 209.77,-73.5 199.77,-70 199.77,-77"/>
</g>
<!-- Sorting -->
<g id="node4" class="node">
<title>Sorting</title>
<polygon fill="none" stroke="black" points="377.5,-55.5 377.5,-91.5 434.5,-91.5 434.5,-55.5 377.5,-55.5"/>
<text text-anchor="middle" x="406" y="-69.8" font-family="Times New Roman,serif" font-size="14.00">Sorting</text>
</g>
<!-- Harvester&#45;&gt;Sorting -->
<g id="edge2" class="edge">
<title>Harvester&#45;&gt;Sorting</title>
<path fill="none" stroke="black" d="M319.04,-73.5C334.99,-73.5 352.14,-73.5 366.89,-73.5"/>
<polygon fill="black" stroke="black" points="367.16,-77 377.16,-73.5 367.16,-70 367.16,-77"/>
</g>
<!-- factory -->
<g id="node5" class="node">
<title>factory</title>
<polygon fill="none" stroke="black" points="14.5,-110.5 14.5,-146.5 154.5,-146.5 154.5,-110.5 14.5,-110.5"/>
<text text-anchor="middle" x="84.5" y="-124.8" font-family="Times New Roman,serif" font-size="14.00">Lugar: Sorting factory</text>
</g>
<!-- The -->
<g id="node6" class="node">
<title>The</title>
<polygon fill="none" stroke="black" points="237.5,-110.5 237.5,-146.5 291.5,-146.5 291.5,-110.5 237.5,-110.5"/>
<text text-anchor="middle" x="264.5" y="-124.8" font-family="Times New Roman,serif" font-size="14.00">The</text>
</g>
<!-- factory&#45;&gt;The -->
<g id="edge3" class="edge">
<title>factory&#45;&gt;The</title>
<path fill="none" stroke="black" d="M154.57,-128.5C179.32,-128.5 206.23,-128.5 227.11,-128.5"/>
<polygon fill="black" stroke="black" points="227.14,-132 237.14,-128.5 227.14,-125 227.14,-132"/>
</g>
<!-- dome -->
<g id="node7" class="node">
<title>dome</title>
<polygon fill="none" stroke="black" points="28,-165.5 28,-201.5 141,-201.5 141,-165.5 28,-165.5"/>
<text text-anchor="middle" x="84.5" y="-179.8" font-family="Times New Roman,serif" font-size="14.00">Lugar: The dome</text>
</g>
<!-- Portal -->
<g id="node8" class="node">
<title>Portal</title>
<polygon fill="none" stroke="black" points="237.5,-165.5 237.5,-201.5 291.5,-201.5 291.5,-165.5 237.5,-165.5"/>
<text text-anchor="middle" x="264.5" y="-179.8" font-family="Times New Roman,serif" font-size="14.00">Portal</text>
</g>
<!-- dome&#45;&gt;Portal -->
<g id="edge4" class="edge">
<title>dome&#45;&gt;Portal</title>
<path fill="none" stroke="black" d="M141.33,-183.5C169.34,-183.5 202.47,-183.5 227.16,-183.5"/>
<polygon fill="black" stroke="black" points="227.18,-187 237.18,-183.5 227.18,-180 227.18,-187"/>
</g>
<!-- de -->
<g id="node9" class="node">
<title>de</title>
<polygon fill="none" stroke="black" points="57.5,-220.5 57.5,-256.5 111.5,-256.5 111.5,-220.5 57.5,-220.5"/>
<text text-anchor="middle" x="84.5" y="-234.8" font-family="Times New Roman,serif" font-size="14.00">de</text>
</g>
<!-- Union -->
<g id="node10" class="node">
<title>Union</title>
<polygon fill="none" stroke="black" points="13,-275.5 13,-311.5 156,-311.5 156,-275.5 13,-275.5"/>
<text text-anchor="middle" x="84.5" y="-289.8" font-family="Times New Roman,serif" font-size="14.00">Lugar: Portal de Union</text>
</g>
<!-- Plaza -->
<g id="node11" class="node">
<title>Plaza</title>
<polygon fill="none" stroke="black" points="237.5,-275.5 237.5,-311.5 291.5,-311.5 291.5,-275.5 237.5,-275.5"/>
<text text-anchor="middle" x="264.5" y="-289.8" font-family="Times New Roman,serif" font-size="14.00">Plaza</text>
</g>
<!-- Union&#45;&gt;Plaza -->
<g id="edge5" class="edge">
<title>Union&#45;&gt;Plaza</title>
<path fill="none" stroke="black" d="M156.11,-293.5C180.41,-293.5 206.62,-293.5 227.07,-293.5"/>
<polygon fill="black" stroke="black" points="227.19,-297 237.19,-293.5 227.19,-290 227.19,-297"/>
</g>
<!-- los -->
<g id="node12" class="node">
<title>los</title>
<polygon fill="none" stroke="black" points="57.5,-330.5 57.5,-366.5 111.5,-366.5 111.5,-330.5 57.5,-330.5"/>
<text text-anchor="middle" x="84.5" y="-344.8" font-family="Times New Roman,serif" font-size="14.00">los</text>
</g>
<!-- bonsais -->
<g id="node13" class="node">
<title>bonsais</title>
<polygon fill="none" stroke="black" points="0,-385.5 0,-421.5 169,-421.5 169,-385.5 0,-385.5"/>
<text text-anchor="middle" x="84.5" y="-399.8" font-family="Times New Roman,serif" font-size="14.00">Lugar: Plaza de los bonsais</text>
</g>
<!-- Hidroponia -->
<g id="node14" class="node">
<title>Hidroponia</title>
<polygon fill="none" stroke="black" points="205,-385.5 205,-421.5 324,-421.5 324,-385.5 205,-385.5"/>
<text text-anchor="middle" x="264.5" y="-399.8" font-family="Times New Roman,serif" font-size="14.00">Lugar: Hidroponia</text>
</g>
<!-- bonsais&#45;&gt;Hidroponia -->
<g id="edge6" class="edge">
<title>bonsais&#45;&gt;Hidroponia</title>
<path fill="none" stroke="black" d="M169.03,-403.5C177.63,-403.5 186.31,-403.5 194.72,-403.5"/>
<polygon fill="black" stroke="black" points="194.85,-407 204.85,-403.5 194.85,-400 194.85,-407"/>
</g>
<!-- Fincas -->
<g id="node15" class="node">
<title>Fincas</title>
<polygon fill="none" stroke="black" points="360,-385.5 360,-421.5 452,-421.5 452,-385.5 360,-385.5"/>
<text text-anchor="middle" x="406" y="-399.8" font-family="Times New Roman,serif" font-size="14.00">Lugar: Fincas</text>
</g>
<!-- Hidroponia&#45;&gt;Fincas -->
<g id="edge7" class="edge">
<title>Hidroponia&#45;&gt;Fincas</title>
<path fill="none" stroke="black" d="M324.26,-403.5C332.73,-403.5 341.42,-403.5 349.82,-403.5"/>
<polygon fill="black" stroke="black" points="349.88,-407 359.88,-403.5 349.88,-400 349.88,-407"/>
</g>
<!-- Oasis -->
<g id="node16" class="node">
<title>Oasis</title>
<polygon fill="none" stroke="black" points="488,-385.5 488,-421.5 575,-421.5 575,-385.5 488,-385.5"/>
<text text-anchor="middle" x="531.5" y="-399.8" font-family="Times New Roman,serif" font-size="14.00">Lugar: Oasis</text>
</g>
<!-- Fincas&#45;&gt;Oasis -->
<g id="edge8" class="edge">
<title>Fincas&#45;&gt;Oasis</title>
<path fill="none" stroke="black" d="M452.29,-403.5C460.51,-403.5 469.15,-403.5 477.57,-403.5"/>
<polygon fill="black" stroke="black" points="477.68,-407 487.68,-403.5 477.68,-400 477.68,-407"/>
</g>
<!-- Transportador -->
<g id="node17" class="node">
<title>Transportador</title>
<polygon fill="none" stroke="black" points="611,-385.5 611,-421.5 748,-421.5 748,-385.5 611,-385.5"/>
<text text-anchor="middle" x="679.5" y="-399.8" font-family="Times New Roman,serif" font-size="14.00">Lugar: Transportador</text>
</g>
<!-- Oasis&#45;&gt;Transportador -->
<g id="edge9" class="edge">
<title>Oasis&#45;&gt;Transportador</title>
<path fill="none" stroke="black" d="M575.12,-403.5C583.17,-403.5 591.81,-403.5 600.55,-403.5"/>
<polygon fill="black" stroke="black" points="600.83,-407 610.83,-403.5 600.83,-400 600.83,-407"/>
</g>
</g>
</svg>
